REM DIRINDEX 1\2,1\3,1\4,1\5,1\6,1\7,1\8
REM DIRNAME cjc152,folder01,folder02,folder03,folder04,folder05,folder06,folder07
TITLE ""
FILE "13_Ch3_Working_Tweets.mp3" MP3
  TRACK 01 AUDIO
    TITLE "0:"
    INDEX 01 00:00:00
  TRACK 02 AUDIO
    TITLE "8:cjc152_0657"
    INDEX 01 00:00:37
  TRACK 03 AUDIO
    TITLE "0:"
    INDEX 01 00:03:12
  TRACK 04 AUDIO
    TITLE "8:cjc152_0658"
    INDEX 01 00:03:72
  TRACK 05 AUDIO
    TITLE "0:"
    INDEX 01 00:05:44
  TRACK 06 AUDIO
    TITLE "4:cjc152_0659"
    INDEX 01 00:06:35
  TRACK 07 AUDIO
    TITLE "0:"
    INDEX 01 00:09:57
  TRACK 08 AUDIO
    TITLE "4:cjc152_0660"
    INDEX 01 00:10:51
  TRACK 09 AUDIO
    TITLE "0:"
    INDEX 01 00:13:69
  TRACK 10 AUDIO
    TITLE "4:cjc152_0661"
    INDEX 01 00:15:54
  TRACK 11 AUDIO
    TITLE "0:"
    INDEX 01 00:19:60
  TRACK 12 AUDIO
    TITLE "4:cjc152_0662"
    INDEX 01 00:20:53
  TRACK 13 AUDIO
    TITLE "0:"
    INDEX 01 00:25:13
  TRACK 14 AUDIO
    TITLE "4:cjc152_0663"
    INDEX 01 00:26:71
  TRACK 15 AUDIO
    TITLE "0:"
    INDEX 01 00:31:12
  TRACK 16 AUDIO
    TITLE "4:cjc152_0664"
    INDEX 01 00:32:05
  TRACK 17 AUDIO
    TITLE "0:"
    INDEX 01 00:37:08
  TRACK 18 AUDIO
    TITLE "4:cjc152_0665"
    INDEX 01 00:38:67
  TRACK 19 AUDIO
    TITLE "0:"
    INDEX 01 00:43:56
  TRACK 20 AUDIO
    TITLE "4:cjc152_0666"
    INDEX 01 00:44:50
  TRACK 21 AUDIO
    TITLE "0:"
    INDEX 01 00:49:02
  TRACK 22 AUDIO
    TITLE "4:cjc152_0667"
    INDEX 01 00:50:58
  TRACK 23 AUDIO
    TITLE "0:"
    INDEX 01 00:54:32
  TRACK 24 AUDIO
    TITLE "4:cjc152_0668"
    INDEX 01 00:55:26
  TRACK 25 AUDIO
    TITLE "0:"
    INDEX 01 01:00:29
  TRACK 26 AUDIO
    TITLE "4:cjc152_0669"
    INDEX 01 01:02:12
  TRACK 27 AUDIO
    TITLE "0:"
    INDEX 01 01:04:47
  TRACK 28 AUDIO
    TITLE "4:cjc152_0670"
    INDEX 01 01:05:34
  TRACK 29 AUDIO
    TITLE "0:"
    INDEX 01 01:08:09
  TRACK 30 AUDIO
    TITLE "4:cjc152_0671"
    INDEX 01 01:09:67
  TRACK 31 AUDIO
    TITLE "0:"
    INDEX 01 01:12:70
  TRACK 32 AUDIO
    TITLE "4:cjc152_0672"
    INDEX 01 01:13:61
  TRACK 33 AUDIO
    TITLE "0:"
    INDEX 01 01:17:53
  TRACK 34 AUDIO
    TITLE "4:cjc152_0673"
    INDEX 01 01:19:36
  TRACK 35 AUDIO
    TITLE "0:"
    INDEX 01 01:24:12
  TRACK 36 AUDIO
    TITLE "4:cjc152_0674"
    INDEX 01 01:25:08
  TRACK 37 AUDIO
    TITLE "0:"
    INDEX 01 01:31:00
  TRACK 38 AUDIO
    TITLE "4:cjc152_0675"
    INDEX 01 01:32:59
  TRACK 39 AUDIO
    TITLE "0:"
    INDEX 01 01:35:37
  TRACK 40 AUDIO
    TITLE "4:cjc152_0676"
    INDEX 01 01:36:31
  TRACK 41 AUDIO
    TITLE "0:"
    INDEX 01 01:39:29
  TRACK 42 AUDIO
    TITLE "4:cjc152_0677"
    INDEX 01 01:41:12
  TRACK 43 AUDIO
    TITLE "0:"
    INDEX 01 01:46:25
  TRACK 44 AUDIO
    TITLE "4:cjc152_0678"
    INDEX 01 01:47:19
  TRACK 45 AUDIO
    TITLE "0:"
    INDEX 01 01:52:00
  TRACK 46 AUDIO
    TITLE "4:cjc152_0679"
    INDEX 01 01:53:59
  TRACK 47 AUDIO
    TITLE "0:"
    INDEX 01 01:56:10
  TRACK 48 AUDIO
    TITLE "4:cjc152_0680"
    INDEX 01 01:57:04
  TRACK 49 AUDIO
    TITLE "0:"
    INDEX 01 01:59:08
  TRACK 50 AUDIO
    TITLE "4:cjc152_0681"
    INDEX 01 02:01:09
  TRACK 51 AUDIO
    TITLE "0:"
    INDEX 01 02:05:44
  TRACK 52 AUDIO
    TITLE "4:cjc152_0682"
    INDEX 01 02:06:42
  TRACK 53 AUDIO
    TITLE "0:"
    INDEX 01 02:10:45
  TRACK 54 AUDIO
    TITLE "4:cjc152_0683"
    INDEX 01 02:12:42
  TRACK 55 AUDIO
    TITLE "0:"
    INDEX 01 02:16:23
  TRACK 56 AUDIO
    TITLE "4:cjc152_0684"
    INDEX 01 02:17:12
  TRACK 57 AUDIO
    TITLE "0:"
    INDEX 01 02:20:32
  TRACK 58 AUDIO
    TITLE "4:cjc152_0685"
    INDEX 01 02:22:33
  TRACK 59 AUDIO
    TITLE "0:"
    INDEX 01 02:26:27
  TRACK 60 AUDIO
    TITLE "4:cjc152_0686"
    INDEX 01 02:27:20
  TRACK 61 AUDIO
    TITLE "0:"
    INDEX 01 02:30:56
  TRACK 62 AUDIO
    TITLE "4:cjc152_0687"
    INDEX 01 02:32:41
  TRACK 63 AUDIO
    TITLE "0:"
    INDEX 01 02:34:24
  TRACK 64 AUDIO
    TITLE "4:cjc152_0688"
    INDEX 01 02:35:16
  TRACK 65 AUDIO
    TITLE "0:"
    INDEX 01 02:37:23
  TRACK 66 AUDIO
    TITLE "4:cjc152_0689"
    INDEX 01 02:39:04
  TRACK 67 AUDIO
    TITLE "0:"
    INDEX 01 02:41:05
  TRACK 68 AUDIO
    TITLE "4:cjc152_0690"
    INDEX 01 02:41:73
  TRACK 69 AUDIO
    TITLE "0:"
    INDEX 01 02:44:19
  TRACK 70 AUDIO
    TITLE "4:cjc152_0691"
    INDEX 01 02:46:02
  TRACK 71 AUDIO
    TITLE "0:"
    INDEX 01 02:48:26
  TRACK 72 AUDIO
    TITLE "4:cjc152_0692"
    INDEX 01 02:49:20
  TRACK 73 AUDIO
    TITLE "0:"
    INDEX 01 02:51:52
  TRACK 74 AUDIO
    TITLE "4:cjc152_0693"
    INDEX 01 02:53:35
  TRACK 75 AUDIO
    TITLE "0:"
    INDEX 01 02:58:23
  TRACK 76 AUDIO
    TITLE "4:cjc152_0694"
    INDEX 01 02:59:16
  TRACK 77 AUDIO
    TITLE "0:"
    INDEX 01 03:02:64
  TRACK 78 AUDIO
    TITLE "4:cjc152_0695"
    INDEX 01 03:04:47
  TRACK 79 AUDIO
    TITLE "0:"
    INDEX 01 03:07:38
  TRACK 80 AUDIO
    TITLE "4:cjc152_0696"
    INDEX 01 03:08:27
  TRACK 81 AUDIO
    TITLE "0:"
    INDEX 01 03:11:53
  TRACK 82 AUDIO
    TITLE "4:cjc152_0697"
    INDEX 01 03:13:36
  TRACK 83 AUDIO
    TITLE "0:"
    INDEX 01 03:16:62
  TRACK 84 AUDIO
    TITLE "4:cjc152_0698"
    INDEX 01 03:17:56
  TRACK 85 AUDIO
    TITLE "0:"
    INDEX 01 03:21:24
  TRACK 86 AUDIO
    TITLE "4:cjc152_0699"
    INDEX 01 03:23:09
  TRACK 87 AUDIO
    TITLE "0:"
    INDEX 01 03:26:39
  TRACK 88 AUDIO
    TITLE "4:cjc152_0700"
    INDEX 01 03:27:28
  TRACK 89 AUDIO
    TITLE "0:"
    INDEX 01 03:30:33
  TRACK 90 AUDIO
    TITLE "4:cjc152_0701"
    INDEX 01 03:32:16
  TRACK 91 AUDIO
    TITLE "0:"
    INDEX 01 03:35:55
  TRACK 92 AUDIO
    TITLE "4:cjc152_0702"
    INDEX 01 03:36:47
  TRACK 93 AUDIO
    TITLE "0:"
    INDEX 01 03:40:47
  TRACK 94 AUDIO
    TITLE "4:cjc152_0703"
    INDEX 01 03:42:32
  TRACK 95 AUDIO
    TITLE "0:"
    INDEX 01 03:46:18
  TRACK 96 AUDIO
    TITLE "4:cjc152_0704"
    INDEX 01 03:47:12
  TRACK 97 AUDIO
    TITLE "0:"
    INDEX 01 03:50:65
  TRACK 98 AUDIO
    TITLE "4:cjc152_0705"
    INDEX 01 03:52:48
  TRACK 99 AUDIO
    TITLE "0:"
    INDEX 01 03:56:71
  TRACK 100 AUDIO
    TITLE "4:cjc152_0706"
    INDEX 01 03:57:65
  TRACK 101 AUDIO
    TITLE "0:"
    INDEX 01 04:03:03
  TRACK 102 AUDIO
    TITLE "4:cjc152_0707"
    INDEX 01 04:04:63
  TRACK 103 AUDIO
    TITLE "0:"
    INDEX 01 04:07:59
  TRACK 104 AUDIO
    TITLE "4:cjc152_0708"
    INDEX 01 04:08:51
  TRACK 105 AUDIO
    TITLE "0:"
    INDEX 01 04:11:16
  TRACK 106 AUDIO
    TITLE "4:cjc152_0709"
    INDEX 01 04:12:74
  TRACK 107 AUDIO
    TITLE "0:"
    INDEX 01 04:18:32
  TRACK 108 AUDIO
    TITLE "4:cjc152_0710"
    INDEX 01 04:19:23
  TRACK 109 AUDIO
    TITLE "0:"
    INDEX 01 04:24:66
  TRACK 110 AUDIO
    TITLE "4:cjc152_0711"
    INDEX 01 04:26:49
  TRACK 111 AUDIO
    TITLE "0:"
    INDEX 01 04:29:41
  TRACK 112 AUDIO
    TITLE "4:cjc152_0712"
    INDEX 01 04:30:35
  TRACK 113 AUDIO
    TITLE "0:"
    INDEX 01 04:33:23
  TRACK 114 AUDIO
    TITLE "4:cjc152_0713"
    INDEX 01 04:35:11
  TRACK 115 AUDIO
    TITLE "0:"
    INDEX 01 04:37:57
  TRACK 116 AUDIO
    TITLE "4:cjc152_0714"
    INDEX 01 04:38:48
  TRACK 117 AUDIO
    TITLE "0:"
    INDEX 01 04:41:31
  TRACK 118 AUDIO
    TITLE "4:cjc152_0715"
    INDEX 01 04:43:20
  TRACK 119 AUDIO
    TITLE "0:"
    INDEX 01 04:47:00
  TRACK 120 AUDIO
    TITLE "4:cjc152_0716"
    INDEX 01 04:47:71
  TRACK 121 AUDIO
    TITLE "0:"
    INDEX 01 04:53:22
  TRACK 122 AUDIO
    TITLE "4:cjc152_0717"
    INDEX 01 04:55:39
  TRACK 123 AUDIO
    TITLE "0:"
    INDEX 01 04:58:74
  TRACK 124 AUDIO
    TITLE "4:cjc152_0718"
    INDEX 01 04:59:68
  TRACK 125 AUDIO
    TITLE "0:"
    INDEX 01 05:04:20
  TRACK 126 AUDIO
    TITLE "4:cjc152_0719"
    INDEX 01 05:06:03
  TRACK 127 AUDIO
    TITLE "0:"
    INDEX 01 05:10:01
  TRACK 128 AUDIO
    TITLE "4:cjc152_0720"
    INDEX 01 05:10:72
  TRACK 129 AUDIO
    TITLE "0:"
    INDEX 01 05:16:31
  TRACK 130 AUDIO
    TITLE "4:cjc152_0721"
    INDEX 01 05:18:16
  TRACK 131 AUDIO
    TITLE "0:"
    INDEX 01 05:21:05
  TRACK 132 AUDIO
    TITLE "4:cjc152_0722"
    INDEX 01 05:21:71
  TRACK 133 AUDIO
    TITLE "0:"
    INDEX 01 05:25:07
  TRACK 134 AUDIO
    TITLE "4:cjc152_0723"
    INDEX 01 05:26:63
  TRACK 135 AUDIO
    TITLE "0:"
    INDEX 01 05:29:61
  TRACK 136 AUDIO
    TITLE "4:cjc152_0724"
    INDEX 01 05:30:57
  TRACK 137 AUDIO
    TITLE "0:"
    INDEX 01 05:34:11
  TRACK 138 AUDIO
    TITLE "4:cjc152_0725"
    INDEX 01 05:35:74
  TRACK 139 AUDIO
    TITLE "0:"
    INDEX 01 05:38:21
  TRACK 140 AUDIO
    TITLE "4:cjc152_0726"
    INDEX 01 05:39:15
  TRACK 141 AUDIO
    TITLE "0:"
    INDEX 01 05:42:40
  TRACK 142 AUDIO
    TITLE "4:cjc152_0727"
    INDEX 01 05:44:24
  TRACK 143 AUDIO
    TITLE "0:"
    INDEX 01 05:46:66
  TRACK 144 AUDIO
    TITLE "4:cjc152_0728"
    INDEX 01 05:47:57
  TRACK 145 AUDIO
    TITLE "0:"
    INDEX 01 05:50:42
  TRACK 146 AUDIO
    TITLE "4:cjc152_0729"
    INDEX 01 05:52:27
  TRACK 147 AUDIO
    TITLE "0:"
    INDEX 01 05:55:31
  TRACK 148 AUDIO
    TITLE "4:cjc152_0730"
    INDEX 01 05:56:27
  TRACK 149 AUDIO
    TITLE "0:"
    INDEX 01 06:00:64
  TRACK 150 AUDIO
    TITLE "4:cjc152_0731"
    INDEX 01 06:02:45
  TRACK 151 AUDIO
    TITLE "0:"
    INDEX 01 06:05:30
  TRACK 152 AUDIO
    TITLE "4:cjc152_0732"
    INDEX 01 06:06:19
  TRACK 153 AUDIO
    TITLE "0:"
    INDEX 01 06:08:61
  TRACK 154 AUDIO
    TITLE "4:cjc152_0733"
    INDEX 01 06:10:44
  TRACK 155 AUDIO
    TITLE "0:"
    INDEX 01 06:14:56
  TRACK 156 AUDIO
    TITLE "4:cjc152_0734"
    INDEX 01 06:15:50
  TRACK 157 AUDIO
    TITLE "0:"
    INDEX 01 06:18:50
  TRACK 158 AUDIO
    TITLE "4:cjc152_0735"
    INDEX 01 06:20:33
  TRACK 159 AUDIO
    TITLE "0:"
    INDEX 01 06:24:56
  TRACK 160 AUDIO
    TITLE "4:cjc152_0736"
    INDEX 01 06:25:50
  TRACK 161 AUDIO
    TITLE "0:"
    INDEX 01 06:30:61
  TRACK 162 AUDIO
    TITLE "4:cjc152_0737"
    INDEX 01 06:32:46
  TRACK 163 AUDIO
    TITLE "0:"
    INDEX 01 06:36:54
  TRACK 164 AUDIO
    TITLE "4:cjc152_0738"
    INDEX 01 06:37:43
  TRACK 165 AUDIO
    TITLE "0:"
    INDEX 01 06:40:48
  TRACK 166 AUDIO
    TITLE "4:cjc152_0739"
    INDEX 01 06:42:31
  TRACK 167 AUDIO
    TITLE "0:"
    INDEX 01 06:44:67
  TRACK 168 AUDIO
    TITLE "4:cjc152_0740"
    INDEX 01 06:45:60
  TRACK 169 AUDIO
    TITLE "0:"
    INDEX 01 06:48:16
  TRACK 170 AUDIO
    TITLE "4:cjc152_0741"
    INDEX 01 06:49:72
  TRACK 171 AUDIO
    TITLE "0:"
    INDEX 01 06:53:44
  TRACK 172 AUDIO
    TITLE "4:cjc152_0742"
    INDEX 01 06:54:36
  TRACK 173 AUDIO
    TITLE "0:"
    INDEX 01 06:59:04
  TRACK 174 AUDIO
    TITLE "4:cjc152_0743"
    INDEX 01 07:01:01
  TRACK 175 AUDIO
    TITLE "0:"
    INDEX 01 07:03:70
  TRACK 176 AUDIO
    TITLE "4:cjc152_0744"
    INDEX 01 07:04:68
  TRACK 177 AUDIO
    TITLE "0:"
    INDEX 01 07:09:37
  TRACK 178 AUDIO
    TITLE "4:cjc152_0745"
    INDEX 01 07:11:25
  TRACK 179 AUDIO
    TITLE "0:"
    INDEX 01 07:13:57
  TRACK 180 AUDIO
    TITLE "4:cjc152_0746"
    INDEX 01 07:14:46
  TRACK 181 AUDIO
    TITLE "0:"
    INDEX 01 07:17:37
  TRACK 182 AUDIO
    TITLE "4:cjc152_0747"
    INDEX 01 07:19:20
  TRACK 183 AUDIO
    TITLE "0:"
    INDEX 01 07:24:04
  TRACK 184 AUDIO
    TITLE "4:cjc152_0748"
    INDEX 01 07:24:68
  TRACK 185 AUDIO
    TITLE "0:"
    INDEX 01 07:29:69
  TRACK 186 AUDIO
    TITLE "4:cjc152_0749"
    INDEX 01 07:31:55
  TRACK 187 AUDIO
    TITLE "0:"
    INDEX 01 07:34:33
  TRACK 188 AUDIO
    TITLE "4:cjc152_0750"
    INDEX 01 07:35:25
  TRACK 189 AUDIO
    TITLE "0:"
    INDEX 01 07:38:65
  TRACK 190 AUDIO
    TITLE "4:cjc152_0751"
    INDEX 01 07:40:48
  TRACK 191 AUDIO
    TITLE "0:"
    INDEX 01 07:44:55
  TRACK 192 AUDIO
    TITLE "4:cjc152_0752"
    INDEX 01 07:45:49
  TRACK 193 AUDIO
    TITLE "0:"
    INDEX 01 07:49:45
  TRACK 194 AUDIO
    TITLE "4:cjc152_0753"
    INDEX 01 07:51:26
  TRACK 195 AUDIO
    TITLE "0:"
    INDEX 01 07:53:15
  TRACK 196 AUDIO
    TITLE "4:cjc152_0754"
    INDEX 01 07:54:22
  TRACK 197 AUDIO
    TITLE "0:"
    INDEX 01 07:57:23
